<svg data-v-423bf9ae="" xmlns="http://www.w3.org/2000/svg" viewBox="0 0 440 90" class="iconLeft"><!----><!----><!----><g data-v-423bf9ae="" id="bf182502-b593-4f99-879b-7d9f09639f72" fill="white" transform="matrix(4.4768290519714355,0,0,4.4768290519714355,106.95713806152344,-0.2142246663570404)"><path d="M3.98 6.55C2.11 6.55 0.68 7.96 0.68 10.21C0.68 12.29 2.11 13.73 3.87 13.73C4.91 13.73 5.74 13.08 6.22 12.36L6.22 13.52L7.34 13.52L7.34 6.69L6.22 6.69L6.22 7.60C5.63 6.95 4.76 6.55 3.98 6.55ZM4.18 7.64C5.02 7.64 5.63 8.07 6.21 8.78L6.22 10.09C6.23 11.55 5.29 12.63 4.05 12.63C2.72 12.63 1.85 11.54 1.85 10.21C1.85 8.89 2.72 7.64 4.18 7.64ZM13.14 6.55C12.10 6.55 11.27 7.12 10.79 7.85L10.79 6.69L9.67 6.69L9.67 16.80L10.79 16.80L10.79 12.61C11.38 13.26 12.25 13.73 13.03 13.73C14.90 13.73 16.32 12.25 16.32 9.99C16.32 7.92 14.90 6.55 13.14 6.55ZM12.96 7.64C14.29 7.64 15.16 8.67 15.16 9.99C15.16 11.32 14.29 12.63 12.82 12.63C11.99 12.63 11.38 12.14 10.80 11.43L10.79 10.12C10.77 8.65 11.72 7.64 12.96 7.64ZM21.64 6.55C20.60 6.55 19.77 7.12 19.29 7.85L19.29 6.69L18.17 6.69L18.17 16.80L19.29 16.80L19.29 12.61C19.88 13.26 20.75 13.73 21.53 13.73C23.41 13.73 24.83 12.25 24.83 9.99C24.83 7.92 23.41 6.55 21.64 6.55ZM21.46 7.64C22.79 7.64 23.67 8.67 23.67 9.99C23.67 11.32 22.79 12.63 21.33 12.63C20.49 12.63 19.88 12.14 19.30 11.43L19.29 10.12C19.28 8.65 20.22 7.64 21.46 7.64ZM27.79 13.52L27.79 3.68L26.67 3.68L26.67 13.52ZM31.21 5.26C31.73 5.26 32.14 4.81 32.14 4.33C32.14 3.84 31.73 3.40 31.21 3.40C30.68 3.40 30.28 3.84 30.28 4.33C30.28 4.81 30.68 5.26 31.21 5.26ZM31.91 6.69L29.71 6.69L29.71 7.74L30.79 7.74L30.79 13.52L31.91 13.52ZM37.42 6.55C35.34 6.55 33.85 8.20 33.85 10.14C33.85 12.09 35.34 13.73 37.42 13.73C38.42 13.73 39.20 13.33 39.47 13.06L39.47 11.92C38.95 12.30 38.34 12.63 37.42 12.63C35.96 12.63 35.01 11.47 35.01 10.14C35.01 8.82 35.96 7.64 37.42 7.64C38.34 7.64 38.95 7.97 39.47 8.35L39.47 7.22C39.20 6.96 38.42 6.55 37.42 6.55ZM44.13 6.55C42.26 6.55 40.84 7.96 40.84 10.21C40.84 12.29 42.26 13.73 44.02 13.73C45.06 13.73 45.90 13.08 46.38 12.36L46.38 13.52L47.50 13.52L47.50 6.69L46.38 6.69L46.38 7.60C45.79 6.95 44.91 6.55 44.13 6.55ZM44.34 7.64C45.17 7.64 45.79 8.07 46.36 8.78L46.38 10.09C46.39 11.55 45.45 12.63 44.20 12.63C42.88 12.63 42 11.54 42 10.21C42 8.89 42.88 7.64 44.34 7.64ZM51.71 6.69L51.71 4.72L51.19 4.72C50.74 6.07 50.16 7.01 49.27 7.41L49.27 7.74L50.59 7.74L50.59 11.80C50.59 12.96 51.19 13.73 52.35 13.73C53.03 13.73 53.39 13.54 53.76 13.25L53.76 12.33C53.48 12.50 53.14 12.66 52.60 12.66C51.99 12.66 51.71 12.32 51.71 11.74L51.71 7.74L53.70 7.74L53.70 6.69ZM56.83 5.26C57.35 5.26 57.76 4.81 57.76 4.33C57.76 3.84 57.35 3.40 56.83 3.40C56.30 3.40 55.90 3.84 55.90 4.33C55.90 4.81 56.30 5.26 56.83 5.26ZM57.53 6.69L55.33 6.69L55.33 7.74L56.41 7.74L56.41 13.52L57.53 13.52ZM63.04 6.55C60.96 6.55 59.47 8.20 59.47 10.14C59.47 12.09 60.96 13.73 63.04 13.73C65.12 13.73 66.61 12.09 66.61 10.14C66.61 8.20 65.12 6.55 63.04 6.55ZM63.04 7.64C64.50 7.64 65.45 8.82 65.45 10.14C65.45 11.47 64.50 12.63 63.04 12.63C61.58 12.63 60.63 11.47 60.63 10.14C60.63 8.82 61.58 7.64 63.04 7.64ZM71.80 6.55C70.88 6.55 70 7.23 69.58 7.77L69.58 6.69L68.46 6.69L68.46 13.52L69.58 13.52L69.58 8.98C70.12 8.27 70.89 7.64 71.61 7.64C72.69 7.64 73.20 8.29 73.20 9.46L73.21 13.52L74.33 13.52L74.33 9.35C74.33 7.46 73.20 6.55 71.80 6.55Z"></path></g><!----><g data-v-423bf9ae="" id="f44ca99c-4f5c-4986-9d18-036ecb340130" transform="matrix(3.75,0,0,3.75,0,0)" stroke="none" fill="white"><path d="M5.072 0A5.061 5.061 0 0 0 0 5.072v13.856A5.061 5.061 0 0 0 5.072 24h13.856A5.061 5.061 0 0 0 24 18.928V5.072A5.061 5.061 0 0 0 18.928 0H5.072zM4.5 4h6c.262 0 .5.238.5.5v6a.52.52 0 0 1-.5.5h-6a.52.52 0 0 1-.5-.5v-6c0-.262.238-.5.5-.5zm9 0h6c.262 0 .5.238.5.5v6a.52.52 0 0 1-.5.5h-6a.52.52 0 0 1-.5-.5v-6c0-.262.238-.5.5-.5zM5 5v5h5V5H5zm-.5 8h6c.262 0 .5.238.5.5v6a.52.52 0 0 1-.5.5h-6a.52.52 0 0 1-.5-.5v-6c0-.262.238-.5.5-.5zm9 0h6c.262 0 .5.238.5.5v6a.52.52 0 0 1-.5.5h-6a.52.52 0 0 1-.5-.5v-6c0-.262.238-.5.5-.5zm.5 1v5h5v-5h-5z"></path></g><!----></svg>